<svg xmlns="http://www.w3.org/2000/svg" xmlns:xlink="http://www.w3.org/1999/xlink" preserveAspectRatio="xMidYMid" width="25.719" height="25.72" viewBox="0 0 25.719 25.72">
  <defs>
    <style>
      .cls-1 {
        fill: #fff;
        fill-rule: evenodd;
      }
    </style>
  </defs>
  <path d="M12.859,17.139 C11.676,17.139 10.666,16.721 9.829,15.884 C8.992,15.047 8.574,14.037 8.574,12.853 C8.574,11.671 8.992,10.660 9.829,9.823 C10.666,8.986 11.676,8.568 12.859,8.568 C14.042,8.568 15.052,8.986 15.889,9.823 C16.726,10.660 17.145,11.671 17.145,12.853 C17.145,14.037 16.726,15.047 15.889,15.884 C15.052,16.721 14.042,17.139 12.859,17.139 ZM12.859,6.258 C11.029,6.258 9.472,6.899 8.189,8.183 C6.905,9.466 6.263,11.023 6.263,12.853 C6.263,14.684 6.905,16.241 8.189,17.524 C9.472,18.808 11.029,19.449 12.859,19.449 C14.690,19.449 16.247,18.808 17.530,17.524 C18.813,16.241 19.455,14.684 19.455,12.853 C19.455,11.023 18.813,9.466 17.530,8.183 C16.247,6.899 14.690,6.258 12.859,6.258 ZM19.723,4.450 C19.299,4.450 18.936,4.600 18.635,4.902 C18.334,5.203 18.183,5.566 18.183,5.990 C18.183,6.414 18.334,6.777 18.635,7.078 C18.936,7.379 19.299,7.530 19.723,7.530 C20.147,7.530 20.510,7.379 20.811,7.078 C21.113,6.777 21.263,6.414 21.263,5.990 C21.263,5.566 21.113,5.203 20.811,4.902 C20.510,4.600 20.147,4.450 19.723,4.450 ZM15.906,2.298 C16.308,2.304 16.846,2.321 17.522,2.348 C18.197,2.376 18.772,2.432 19.246,2.516 C19.720,2.600 20.119,2.703 20.443,2.826 C21.001,3.049 21.492,3.373 21.916,3.797 C22.340,4.221 22.664,4.712 22.887,5.270 C23.010,5.594 23.113,5.993 23.197,6.467 C23.281,6.941 23.336,7.516 23.364,8.191 C23.392,8.867 23.409,9.405 23.415,9.807 C23.420,10.208 23.420,10.797 23.415,11.573 C23.409,12.349 23.406,12.776 23.406,12.853 C23.406,12.932 23.409,13.359 23.415,14.134 C23.420,14.910 23.420,15.499 23.415,15.900 C23.409,16.302 23.392,16.841 23.364,17.516 C23.336,18.191 23.281,18.766 23.197,19.240 C23.113,19.715 23.010,20.114 22.887,20.437 C22.664,20.995 22.340,21.486 21.916,21.910 C21.492,22.335 21.001,22.658 20.443,22.881 C20.119,23.004 19.720,23.107 19.246,23.191 C18.772,23.275 18.197,23.331 17.522,23.359 C16.846,23.387 16.308,23.403 15.906,23.409 C15.504,23.414 14.916,23.414 14.140,23.409 C13.364,23.403 12.937,23.400 12.859,23.400 C12.781,23.400 12.354,23.403 11.579,23.409 C10.803,23.414 10.214,23.414 9.812,23.409 C9.411,23.403 8.872,23.387 8.197,23.359 C7.522,23.331 6.947,23.275 6.473,23.191 C5.998,23.107 5.599,23.004 5.276,22.881 C4.717,22.658 4.226,22.335 3.802,21.910 C3.378,21.486 3.055,20.995 2.831,20.437 C2.709,20.114 2.605,19.715 2.522,19.240 C2.438,18.766 2.382,18.191 2.354,17.516 C2.326,16.841 2.310,16.302 2.304,15.900 C2.298,15.499 2.298,14.910 2.304,14.134 C2.310,13.359 2.312,12.932 2.312,12.853 C2.312,12.776 2.310,12.349 2.304,11.573 C2.298,10.797 2.298,10.208 2.304,9.807 C2.310,9.405 2.326,8.867 2.354,8.191 C2.382,7.516 2.438,6.941 2.522,6.467 C2.605,5.993 2.709,5.594 2.831,5.270 C3.055,4.712 3.378,4.221 3.802,3.797 C4.226,3.373 4.717,3.049 5.276,2.826 C5.599,2.703 5.998,2.600 6.473,2.516 C6.947,2.432 7.522,2.376 8.197,2.348 C8.872,2.321 9.411,2.304 9.812,2.298 C10.214,2.293 10.803,2.293 11.579,2.298 C12.354,2.304 12.781,2.307 12.859,2.307 C12.937,2.307 13.364,2.304 14.140,2.298 C14.916,2.293 15.504,2.293 15.906,2.298 ZM25.633,7.547 C25.521,5.225 24.829,3.428 23.557,2.156 C22.285,0.884 20.487,0.192 18.166,0.080 C17.184,0.024 15.415,-0.004 12.859,-0.004 C10.303,-0.004 8.534,0.024 7.552,0.080 C5.231,0.192 3.434,0.884 2.162,2.156 C0.889,3.428 0.197,5.225 0.086,7.547 C0.030,8.529 0.002,10.298 0.002,12.853 C0.002,15.409 0.030,17.178 0.086,18.160 C0.197,20.482 0.889,22.279 2.162,23.551 C3.434,24.823 5.231,25.515 7.552,25.627 C8.534,25.683 10.303,25.711 12.859,25.711 C15.415,25.711 17.184,25.683 18.166,25.627 C20.487,25.515 22.285,24.823 23.557,23.551 C24.829,22.279 25.521,20.482 25.633,18.160 C25.688,17.178 25.716,15.409 25.716,12.853 C25.716,10.298 25.688,8.529 25.633,7.547 L25.633,7.547 Z" class="cls-1"/>
</svg>
