<svg xmlns="http://www.w3.org/2000/svg" xmlns:xlink="http://www.w3.org/1999/xlink" preserveAspectRatio="xMidYMid" width="26.37" height="21.4" viewBox="0 0 26.37 21.4">
  <defs>
    <style>
      .cls-1 {
        fill: #fff;
        fill-rule: evenodd;
      }
    </style>
  </defs>
  <path d="M23.263,3.373 C24.435,2.669 25.228,1.676 25.641,0.393 C24.569,1.029 23.425,1.464 22.209,1.698 C21.137,0.560 19.820,-0.009 18.258,-0.009 C16.762,-0.009 15.487,0.518 14.433,1.573 C13.378,2.627 12.850,3.903 12.850,5.398 C12.850,5.800 12.895,6.213 12.984,6.637 C10.775,6.526 8.701,5.970 6.765,4.971 C4.829,3.973 3.185,2.642 1.835,0.978 C1.344,1.816 1.098,2.725 1.098,3.707 C1.098,4.634 1.316,5.493 1.751,6.285 C2.186,7.078 2.772,7.720 3.509,8.211 C2.638,8.177 1.824,7.949 1.065,7.524 L1.065,7.591 C1.065,8.897 1.475,10.044 2.295,11.031 C3.116,12.019 4.151,12.642 5.401,12.898 C4.932,13.021 4.458,13.082 3.978,13.082 C3.665,13.082 3.325,13.055 2.956,12.999 C3.302,14.081 3.939,14.971 4.865,15.669 C5.791,16.366 6.841,16.726 8.012,16.749 C6.048,18.289 3.810,19.059 1.299,19.059 C0.819,19.059 0.384,19.037 -0.007,18.992 C2.505,20.610 5.272,21.419 8.297,21.419 C10.216,21.419 12.019,21.115 13.704,20.507 C15.389,19.899 16.829,19.084 18.024,18.063 C19.218,17.042 20.247,15.867 21.112,14.539 C21.977,13.211 22.622,11.824 23.046,10.379 C23.470,8.933 23.682,7.485 23.682,6.034 C23.682,5.722 23.676,5.488 23.665,5.331 C24.725,4.561 25.629,3.629 26.377,2.535 C25.339,2.982 24.301,3.261 23.263,3.373 L23.263,3.373 Z" class="cls-1"/>
</svg>
