<svg xmlns="http://www.w3.org/2000/svg" xmlns:xlink="http://www.w3.org/1999/xlink" preserveAspectRatio="xMidYMid" width="11.875" height="17.16" viewBox="0 0 11.875 17.16">
  <defs>
    <style>
      .cls-1 {
        fill: #fff;
        fill-rule: evenodd;
      }
    </style>
  </defs>
  <path d="M-0.006,17.151 L5.970,17.151 C7.829,17.151 9.277,16.721 10.312,15.862 C11.347,15.003 11.865,13.807 11.865,12.276 C11.865,9.987 10.564,8.620 7.962,8.174 L7.962,8.057 C9.048,7.862 9.874,7.434 10.441,6.774 C11.007,6.114 11.291,5.276 11.291,4.260 C11.291,2.792 10.783,1.717 9.767,1.038 C8.751,0.358 7.107,0.018 4.834,0.018 L-0.006,0.018 L-0.006,17.151 ZM1.986,1.741 L4.916,1.741 C6.416,1.741 7.509,1.954 8.197,2.379 C8.884,2.805 9.228,3.499 9.228,4.460 C9.228,5.506 8.919,6.251 8.302,6.692 C7.685,7.133 6.673,7.354 5.267,7.354 L1.986,7.354 L1.986,1.741 ZM5.396,9.042 C6.857,9.042 7.945,9.292 8.660,9.792 C9.375,10.292 9.732,11.073 9.732,12.135 C9.732,13.276 9.382,14.114 8.683,14.649 C7.984,15.184 6.943,15.452 5.560,15.452 L1.986,15.452 L1.986,9.042 L5.396,9.042 Z" class="cls-1"/>
</svg>
